# File produced by Open Asset Import Library (http://www.assimp.sf.net)
# (assimp v5.0.0)

mtllib floor_window.mtl

# 207 vertex positions
v  800 -362.5 -400
v  700 -362.5 -400
v  700 -350 -400
v  800 -350 -400
v  700 -350 -375
v  800 -350 -375
v  800 -400 -600.00012
v  700 -400 -600.00012
v  700 -400 -475
v  800 -400 -475
v  304 0 -204
v  304 0 -200
v  304 -200 -200
v  304 -200 -204
v  300 0 -204
v  300 -200 -204
v  700 -387.5 -475
v  800 -387.5 -475
v  700 -387.5 -450
v  800 -387.5 -450
v  800 -275 -225
v  700 -275 -225
v  700 -262.5 -225
v  800 -262.5 -225
v  700 -262.5 -200
v  800 -262.5 -200
v  800 -312.5 -300
v  700 -312.5 -300
v  700 -300 -300
v  800 -300 -300
v  700 -300 -275
v  800 -300 -275
v  799.99902 0 0
v  0 0 0
v  0 0 -100
v  799.99902 0 -100
v  800 -250 -175
v  700 -250 -175
v  700 -237.5 -175
v  800 -237.5 -175
v  700 -237.5 -150
v  800 -237.5 -150
v  800 -287.5 -250
v  700 -287.5 -250
v  700 -275 -250
v  800 -275 -250
v  800 -225 -125
v  700 -225 -125
v  700 -212.5 -125
v  800 -212.5 -125
v  700 -212.5 -100
v  800 -212.5 -100
v  800 -325 -325
v  700 -325 -325
v  700 -312.5 -325
v  800 -312.5 -325
v  599.99994 -200.00003 -400
v  299.99991 -200.00003 -400
v  299.99991 -200 -100.00005
v  599.99994 -200 -100.00005
v  799.99988 -232 -100
v  0.001 -232 -100
v  0.001 -200 -100
v  799.99988 -200 -100
v  0.001 -200 0
v  799.99988 -200 0
v  700 -225 -150
v  800 -225 -150
v  700 -250 -200
v  800 -250 -200
v  796 0 -4
v  800 0 -4
v  800 -200 -4
v  796 -200 -4
v  796 0 0
v  796 -200 0
v  596 0 -204
v  600 0 -204
v  600 -200 -204
v  596 -200 -204
v  596 0 -200
v  596 -200 -200
v  800 0 -100
v  700 0 -100
v  700 0 -200
v  800 0 -200
v  799.99994 0 -200
v  699.99994 0 -200
v  699.99994 -200 -600
v  799.99994 -200 -600
v  800 -337.5 -350
v  700 -337.5 -350
v  700 -325 -350
v  800 -325 -350
v  599.99994 0 -100.00005
v  299.99991 0 -100.00005
v  299.99991 0 -400
v  599.99994 0 -400
v  700 -375 -450
v  800 -375 -450
v  700 -375 -425
v  800 -375 -425
v  700 -287.5 -275
v  800 -287.5 -275
v  700 -362.5 -425
v  800 -362.5 -425
v  700 -337.5 -375
v  800 -337.5 -375
v  0 0 -4
v  4 0 -4
v  4 -200 -4
v  0 -200 -4
v  4 0 0
v  4 -200 0
v  304 0 -396
v  300 0 -396
v  300 -200 -396
v  304 -200 -396
v  304 0 -400
v  304 -200 -400
v  596 0 -396
v  596 0 -400
v  596 -200 -400
v  596 -200 -396
v  600 0 -396
v  600 -200 -396
v  425 -74.000015 -124.99999
v  400 -74.000015 -124.99999
v  400 -24.999994 -124.99999
v  425 -24.999994 -124.99999
v  400 -74.000015 -112.00002
v  425 -74.000015 -112.00002
v  425 -24.999996 -112.00002
v  400 -24.999996 -112.00002
v  100 -200 -100
v  400 -200 -100
v  400 0 -100
v  100 0 -100
v  500 -74.000015 -125
v  475 -74.000015 -125
v  475 -24.999994 -125
v  500 -24.999994 -125
v  475 -74.000015 -112.00002
v  500 -74.000015 -112.00002
v  500 -24.999996 -112.00002
v  475 -24.999996 -112.00002
v  700 -213 -100
v  0 -200 0
v  0 -200 -100
v  300 -200 -200
v  300 -200 -399.99997
v  300 0 -399.99997
v  300 0 -200
v  500 -25.000011 -124.99998
v  400 -25.000011 -124.99998
v  400 3.44e-06 -124.99998
v  500 3.44e-06 -124.99998
v  400 -25.000013 -112
v  500 -25.000013 -112
v  500 3.0399999e-06 -112
v  400 3.0399999e-06 -112
v  800 -400 -600
v  800 -200 -600
v  600 -200 -400
v  600 -200 -200.00002
v  600 0 -200.00002
v  600 0 -400
v  700 -200 -600
v  700 0 -200.00011
v  399.99997 -200 -199.99995
v  299.99997 -200 -199.99995
v  299.99997 0 -199.99995
v  399.99997 0 -199.99995
v  399.99997 -200 -99.999969
v  399.99997 0 -99.999969
v  700 -400 -600
v  500 -200 -100
v  700 -200 -100
v  500 0 -100
v  500 -200 -132
v  500 0 -132
v  800 -200 0
v  -0.001 -200 0
v  -0.001 0 0
v  800 0 0
v  300.00003 -200 -400
v  300.00003 0 -400
v  500 -200 -124.99998
v  400 -200 -124.99998
v  400 -74 -124.99998
v  500 -74 -124.99998
v  400 -200 -112.00001
v  500 -200 -112
v  500 -74 -112
v  400 -74 -112.00001
v  600 -200 -199.99997
v  499.99997 -200 -199.99998
v  499.99997 0 -199.99998
v  600 0 -199.99997
v  499.99997 -200 -99.999969
v  499.99997 0 -99.999969
v  800 -213 -100.00005
v  800 -200.00002 -4.9999999e-05
v  800 0 -4.9999999e-05
v  800 0 -200.00005
v  800 -213 -100
v  800 0 -200.00011

# 218 UV coordinates
vt -4.1118422 1.8612254 0
vt -3.5978618 1.8612254 0
vt -3.5978618 1.7969778 0
vt -4.1118422 1.7969778 0
vt -4.1118422 2.053968 0
vt -3.5978618 2.053968 0
vt -3.5978618 1.9254729 0
vt -4.1118422 1.9254729 0
vt -4.1118422 3.081929 0
vt -3.5978618 3.081929 0
vt -3.5978618 2.4394531 0
vt -4.1118422 2.4394531 0
vt -1.0387542 0.009765625 0
vt -1.0181949 0.009765625 0
vt -1.0181949 1.0377262 0
vt -1.0387542 1.0377262 0
vt 1.5517064 0.009765625 0
vt 1.5722656 0.009765625 0
vt 1.5722656 1.0377262 0
vt 1.5517064 1.0377262 0
vt -3.5978618 1.9897203 0
vt -4.1118422 1.9897203 0
vt -3.5978618 2.3109581 0
vt -4.1118422 2.3109581 0
vt -4.1118422 1.4114926 0
vt -3.5978618 1.4114926 0
vt -3.5978618 1.3472451 0
vt -4.1118422 1.3472451 0
vt -4.1118422 1.1545025 0
vt -3.5978618 1.1545025 0
vt -3.5978618 1.0260074 0
vt -4.1118422 1.0260074 0
vt -4.1118422 1.6042352 0
vt -3.5978618 1.6042352 0
vt -3.5978618 1.5399877 0
vt -4.1118422 1.5399877 0
vt 4.1118369 -0.001953125 0
vt 0 -0.001953125 0
vt 0 0.51202714 0
vt 4.1118369 0.51202714 0
vt -4.1118422 1.2829975 0
vt -3.5978618 1.2829975 0
vt -3.5978618 1.21875 0
vt -4.1118422 1.21875 0
vt -4.1118422 0.89751232 0
vt -3.5978618 0.89751232 0
vt -3.5978618 0.76901728 0
vt -4.1118422 0.76901728 0
vt -4.1118422 1.4757401 0
vt -3.5978618 1.4757401 0
vt -3.5978618 1.0902549 0
vt -4.1118422 1.0902549 0
vt -4.1118422 0.64052218 0
vt -3.5978618 0.64052218 0
vt -3.5978618 0.51202714 0
vt -4.1118422 0.51202714 0
vt -4.1118422 1.6684828 0
vt -3.5978618 1.6684828 0
vt 3.0838814 -2.0578742 0
vt 1.5419403 -2.0578742 0
vt 1.5419403 -0.51593375 0
vt 3.0838814 -0.51593375 0
vt -4.1118417 1.1904811 0
vt -5.1398029e-06 1.1904811 0
vt -5.1398029e-06 1.0260074 0
vt -4.1118417 1.0260074 0
vt -4.1118417 0.51202714 0
vt -5.1398029e-06 0.51202714 0
vt -5.1398029e-06 -0.001953125 0
vt -4.1118417 -0.001953125 0
vt 4.0912828 -0.001953125 0
vt 4.1118422 -0.001953125 0
vt 4.1118422 1.0260074 0
vt 4.0912828 1.0260074 0
vt 0.02055921 -0.001953125 0
vt 0.02055921 1.0260074 0
vt -0 1.0260074 0
vt 3.4715254 0.40820313 0
vt 3.4920847 0.40820313 0
vt 3.4920847 1.4361637 0
vt 3.4715254 1.4361637 0
vt 1.4361637 0.40820313 0
vt 1.4567229 0.40820313 0
vt 1.4567229 1.4361637 0
vt 1.4361637 1.4361637 0
vt 4.1118422 0.51202714 0
vt 3.5978618 0.51202714 0
vt 3.5978618 1.0260074 0
vt 4.1118417 1.0260074 0
vt 3.5978615 1.0260074 0
vt 3.5978615 3.0819285 0
vt 4.1118417 3.0819285 0
vt -4.1118422 1.7327303 0
vt -3.5978618 1.7327303 0
vt 3.0838814 0.51202738 0
vt 1.5419403 0.51202738 0
vt 1.5419403 2.053968 0
vt 3.0838814 2.053968 0
vt -3.5978618 2.1824629 0
vt -4.1118422 2.1824629 0
vt -0.02055921 -0.001953125 0
vt -0.02055921 1.0260074 0
vt -1.3457031 0.21679688 0
vt -1.3251439 0.21679688 0
vt -1.3251439 1.2447574 0
vt -1.3457031 1.2447574 0
vt -1.8391243 0.21679688 0
vt -1.818565 0.21679688 0
vt -1.818565 1.2447574 0
vt -1.8391243 1.2447574 0
vt 2.4923933 0.45703125 0
vt 2.5129523 0.45703125 0
vt 2.5129523 1.4849918 0
vt 2.4923933 1.4849918 0
vt -2.6268504 0.45703125 0
vt -2.6062911 0.45703125 0
vt -2.6062911 1.4849918 0
vt -2.6268504 1.4849918 0
vt -2.1844161 0.37839234 0
vt -2.0559208 0.37839234 0
vt -2.0559208 0.12654191 0
vt -2.1844161 0.12654191 0
vt 2.0559211 0.37839234 0
vt 2.1844161 0.37839234 0
vt 2.1844161 0.12654191 0
vt 2.0559211 0.12654191 0
vt 0.57565796 0.37839234 0
vt 0.64247525 0.37839234 0
vt 0.64247525 0.12654191 0
vt 0.57565796 0.12654191 0
vt 0.51398027 1.0260074 0
vt 2.0559211 1.0260074 0
vt 2.0559211 -0.001953125 0
vt 0.51398027 -0.001953125 0
vt -2.5699012 0.37839234 0
vt -2.4414063 0.37839234 0
vt -2.4414063 0.12654191 0
vt -2.5699012 0.12654191 0
vt 2.4414063 0.37839234 0
vt 2.5699012 0.37839234 0
vt 2.5699012 0.12654191 0
vt 2.4414063 0.12654191 0
vt -0.64247531 0.37839234 0
vt -0.57565802 0.37839234 0
vt -0.57565802 0.12654191 0
vt -0.64247531 0.12654191 0
vt -0.51398027 -0.001953125 0
vt -0.51398027 1.0928248 0
vt -1.0279605 -0.001953125 0
vt 1.0279605 1.0260074 0
vt 1.0279605 -0.001953125 0
vt -2.5699012 0.126542 0
vt -2.0559211 0.126542 0
vt -2.0559211 -0.0019531427 0
vt -2.5699012 -0.0019531427 0
vt 2.0559211 0.126542 0
vt 2.5699012 0.126542 0
vt 2.5699012 -0.0019531406 0
vt 2.0559211 -0.0019531406 0
vt 2.5699012 0.57370478 0
vt 2.0559211 0.57370478 0
vt 2.0559211 0.64052206 0
vt 2.5699012 0.64052206 0
vt -3.4862254 2.0266242 0
vt -2.84375 2.0266242 0
vt -3.4862254 0.99866366 0
vt -2.0559213 1.0260074 0
vt -1.0279609 1.0260074 0
vt -1.0279609 -0.001953125 0
vt -2.0559213 -0.001953125 0
vt -3.0838816 1.0260074 0
vt -1.027961 -0.001953125 0
vt -2.4414063 2.053968 0
vt -2.0559208 1.0260074 0
vt -1.5419406 1.0260074 0
vt -1.5419406 -0.001953125 0
vt -2.0559208 -0.001953125 0
vt 0.51398009 1.0260074 0
vt 1.0279603 1.0260074 0
vt 1.0279603 -0.001953125 0
vt 0.51398009 -0.001953125 0
vt -3.0838816 2.053968 0
vt 2.5699012 1.0260074 0
vt 3.5978618 -0.001953125 0
vt 2.5699012 -0.001953125 0
vt -0.67845392 1.0260074 0
vt -0.51398027 1.0260074 0
vt -0.67845392 -0.001953125 0
vt 5.1398029e-06 1.0260074 0
vt 5.1398029e-06 -0.001953125 0
vt -4.1118422 -0.001953125 0
vt 1.541941 1.0260074 0
vt 3.0838816 1.0260074 0
vt 3.0838816 -0.001953125 0
vt 1.541941 -0.001953125 0
vt -2.5699012 1.0260074 0
vt -2.0559211 1.0260074 0
vt -2.0559211 0.37839228 0
vt -2.5699012 0.37839228 0
vt 2.5699012 0.37839228 0
vt 2.0559211 0.37839228 0
vt -2.5699012 0.64052206 0
vt -2.0559211 0.64052212 0
vt -2.0559211 0.57370478 0
vt -2.5699012 0.57370478 0
vt -3.0838814 1.0260074 0
vt -2.5699012 -0.001953125 0
vt -3.0838814 -0.001953125 0
vt -1.0279604 1.0260074 0
vt -0.51398015 1.0260074 0
vt -0.51398015 -0.001953125 0
vt -1.0279604 -0.001953125 0
vt -0.91632426 1.0654811 0
vt -0.40234402 0.99866372 0
vt -0.40234402 -0.029296875 0
vt -1.4303045 -0.029296875 0
vt -0.91632402 1.0654811 0
vt -1.4303048 -0.029296875 0

# 22 vertex normals
vn 0 0 -1
vn 0 1 0
vn 1 0 3.4999999e-08
vn 3.7500001e-08 0 -1
vn 0 -1 0
vn 0 1 -8.7433349e-08
vn -1 -0 -0
vn 0 -0.89442718 0.44721359
vn 1 0 0
vn -2.25e-08 0 1
vn 1 0 2.5e-08
vn -1 -0 -9.9999999e-09
vn -1.25e-08 0 1
vn 1.4199999e-07 0 -1
vn -1.4199999e-07 0 1
vn 0 0 1
vn 1 0 1.8100001e-08
vn 3.5499998e-08 0 -1
vn -3.5499998e-08 0 1
vn 1.0923098e-15 -1 -3.0769289e-08
vn -1 -0 -1.0550001e-07
vn 4.3599997e-08 0 -1

# Mesh '' with 100 faces
usemtl concretefloor
f  1/1/1 2/2/1 3/3/1
f  1/1/1 3/3/1 4/4/1
f  4/5/2 3/6/2 5/7/2
f  4/5/2 5/7/2 6/8/2
f  7/9/2 8/10/2 9/11/2
f  7/9/2 9/11/2 10/12/2
f  11/13/3 12/14/3 13/15/3
f  11/13/3 13/15/3 14/16/3
f  15/17/4 11/18/4 14/19/4
f  15/17/4 14/19/4 16/20/4
f  10/5/1 9/6/1 17/21/1
f  10/5/1 17/21/1 18/22/1
f  18/12/2 17/11/2 19/23/2
f  18/12/2 19/23/2 20/24/2
f  21/25/1 22/26/1 23/27/1
f  21/25/1 23/27/1 24/28/1
f  24/29/2 23/30/2 25/31/2
f  24/29/2 25/31/2 26/32/2
f  27/33/1 28/34/1 29/35/1
f  27/33/1 29/35/1 30/36/1
f  30/36/2 29/35/2 31/26/2
f  30/36/2 31/26/2 32/25/2
f  33/37/5 34/38/5 35/39/5
f  33/37/5 35/39/5 36/40/5
f  37/41/1 38/42/1 39/43/1
f  37/41/1 39/43/1 40/44/1
f  40/45/2 39/46/2 41/47/2
f  40/45/2 41/47/2 42/48/2
f  43/49/1 44/50/1 45/26/1
f  43/49/1 45/26/1 46/25/1
f  46/41/2 45/42/2 22/30/2
f  46/41/2 22/30/2 21/29/2
f  47/29/1 48/30/1 49/51/1
f  47/29/1 49/51/1 50/52/1
f  50/53/2 49/54/2 51/55/2
f  50/53/2 51/55/2 52/56/2
f  53/57/1 54/58/1 55/34/1
f  53/57/1 55/34/1 56/33/1
f  56/57/2 55/58/2 28/35/2
f  56/57/2 28/35/2 27/36/2
f  57/59/6 58/60/6 59/61/6
f  57/59/6 59/61/6 60/62/6
f  61/63/1 62/64/1 63/65/1
f  61/63/1 63/65/1 64/66/1
f  64/67/2 63/68/2 65/69/2
f  64/67/2 65/69/2 66/70/2
f  42/44/1 41/43/1 67/30/1
f  42/44/1 67/30/1 68/29/1
f  68/48/2 67/47/2 48/54/2
f  68/48/2 48/54/2 47/53/2
f  26/28/1 25/27/1 69/42/1
f  26/28/1 69/42/1 70/41/1
f  70/32/2 69/31/2 38/46/2
f  70/32/2 38/46/2 37/45/2
f  71/71/1 72/72/1 73/73/1
f  71/71/1 73/73/1 74/74/1
f  75/38/7 71/75/7 74/76/7
f  75/38/7 74/76/7 76/77/7
f  77/78/1 78/79/1 79/80/1
f  77/78/1 79/80/1 80/81/1
f  81/82/7 77/83/7 80/84/7
f  81/82/7 80/84/7 82/85/7
f  83/86/5 84/87/5 85/88/5
f  83/86/5 85/88/5 86/73/5
f  87/89/8 88/90/8 89/91/8
f  87/89/8 89/91/8 90/92/8
f  91/93/1 92/94/1 93/58/1
f  91/93/1 93/58/1 94/57/1
f  94/4/2 93/3/2 54/58/2
f  94/4/2 54/58/2 53/57/2
f  95/95/5 96/96/5 97/97/5
f  95/95/5 97/97/5 98/98/5
f  20/22/1 19/21/1 99/7/1
f  20/22/1 99/7/1 100/8/1
f  100/24/2 99/23/2 101/99/2
f  100/24/2 101/99/2 102/100/2
f  32/36/1 31/35/1 103/50/1
f  32/36/1 103/50/1 104/49/1
f  104/25/2 103/26/2 44/42/2
f  104/25/2 44/42/2 43/41/2
f  102/8/1 101/7/1 105/2/1
f  102/8/1 105/2/1 106/1/1
f  106/100/2 105/99/2 2/6/2
f  106/100/2 2/6/2 1/5/2
f  6/4/1 5/3/1 107/94/1
f  6/4/1 107/94/1 108/93/1
f  108/8/2 107/7/2 92/3/2
f  108/8/2 92/3/2 91/4/2
f  109/38/1 110/75/1 111/76/1
f  109/38/1 111/76/1 112/77/1
f  110/101/9 113/38/9 114/77/9
f  110/101/9 114/77/9 111/102/9
f  115/103/10 116/104/10 117/105/10
f  115/103/10 117/105/10 118/106/10
f  119/107/11 115/108/11 118/109/11
f  119/107/11 118/109/11 120/110/11
f  121/111/12 122/112/12 123/113/12
f  121/111/12 123/113/12 124/114/12
f  125/115/13 121/116/13 124/117/13
f  125/115/13 124/117/13 126/118/13

# Mesh '' with 57 faces
usemtl brickwall
f  127/119/14 128/120/14 129/121/14
f  127/119/14 129/121/14 130/122/14
f  131/123/15 132/124/15 133/125/15
f  131/123/15 133/125/15 134/126/15
f  132/127/9 127/128/9 130/129/9
f  132/127/9 130/129/9 133/130/9
f  135/131/16 136/132/16 137/133/16
f  135/131/16 137/133/16 138/134/16
f  139/135/14 140/136/14 141/137/14
f  139/135/14 141/137/14 142/138/14
f  143/139/15 144/140/15 145/141/15
f  143/139/15 145/141/15 146/142/15
f  140/143/7 143/144/7 146/145/7
f  140/143/7 146/145/7 141/146/7
f  84/147/9 147/148/9 85/149/9
f  148/77/9 149/131/9 35/134/9
f  148/77/9 35/134/9 34/38/9
f  150/150/17 151/132/17 152/133/17
f  150/150/17 152/133/17 153/151/17
f  154/152/18 155/153/18 156/154/18
f  154/152/18 156/154/18 157/155/18
f  158/156/19 159/157/19 160/158/19
f  158/156/19 160/158/19 161/159/19
f  159/160/20 158/161/20 155/162/20
f  159/160/20 155/162/20 154/163/20
f  162/164/7 10/165/7 163/166/7
f  164/167/21 165/168/21 166/169/21
f  164/167/21 166/169/21 167/170/21
f  168/171/9 169/172/9 147/148/9
f  168/171/9 147/148/9 9/173/9
f  170/174/1 171/175/1 172/176/1
f  170/174/1 172/176/1 173/177/1
f  174/178/9 170/179/9 173/180/9
f  174/178/9 173/180/9 175/181/9
f  168/171/9 9/173/9 176/182/9
f  177/183/16 178/88/16 84/184/16
f  177/183/16 84/184/16 179/185/16
f  180/186/7 177/187/7 179/147/7
f  180/186/7 179/147/7 181/188/7
f  182/32/1 183/189/1 184/190/1
f  182/32/1 184/190/1 185/191/1
f  186/192/16 164/193/16 167/194/16
f  186/192/16 167/194/16 187/195/16
f  188/196/18 189/197/18 190/198/18
f  188/196/18 190/198/18 191/199/18
f  192/132/19 193/183/19 194/200/19
f  192/132/19 194/200/19 195/201/19
f  191/202/2 190/203/2 195/204/2
f  191/202/2 195/204/2 194/205/2
f  196/206/22 197/196/22 198/207/22
f  196/206/22 198/207/22 199/208/22
f  197/209/7 200/210/7 201/211/7
f  197/209/7 201/211/7 198/212/7
f  202/213/7 203/214/7 204/215/7
f  202/213/7 204/215/7 205/216/7
f  10/165/7 206/217/7 207/218/7
f  10/165/7 207/218/7 163/166/7

