# File produced by Open Asset Import Library (http://www.assimp.sf.net)
# (assimp v5.0.0)

mtllib floor_hole_alt.mtl

# 209 vertex positions
v  800 -400 -475
v  700 -400 -475
v  700 -387.5 -475
v  800 -387.5 -475
v  700 -387.5 -450
v  800 -387.5 -450
v  800 -375 -425
v  700 -375 -425
v  700 -362.5 -425
v  800 -362.5 -425
v  700 -362.5 -400
v  800 -362.5 -400
v  799.99994 0 -200
v  699.99994 0 -200
v  699.99994 -200 -600
v  799.99994 -200 -600
v  99.999985 -7.0000002e-05 0
v  0.00099236995 -7.0000002e-05 0
v  0.00099236995 -7.0000002e-05 -100
v  99.999985 -7.0000002e-05 -100
v  800 -350 -375
v  700 -350 -375
v  700 -337.5 -375
v  800 -337.5 -375
v  700 -337.5 -350
v  800 -337.5 -350
v  800 -312.5 -300
v  700 -312.5 -300
v  700 -300 -300
v  800 -300 -300
v  700 -300 -275
v  800 -300 -275
v  699.99988 -200 800
v  -4.1354e-05 -200 800
v  -2.132e-05 -200 900
v  699.99988 -200 900
v  -96.000008 0 896
v  -96.000008 0 900
v  -96.000008 -200 900
v  -96.000008 -200 896
v  -100.00001 0 896
v  -100.00001 -200 896
v  200 -400 600
v  100 -400 600
v  100 -400 700
v  200 -400 700
v  199.99994 -200 0
v  -99.999962 -200 0
v  -99.999962 -200 199.99997
v  199.99994 -200 199.99997
v  699.99988 -7.0000002e-05 900
v  -3.2002001e-05 -7.0000002e-05 900
v  -5.2036001e-05 -7.0000002e-05 800
v  699.99988 -7.0000002e-05 800
v  199.99994 -7.0000002e-05 199.99997
v  -99.999969 -7.0000002e-05 199.99997
v  -99.999969 -7.0000002e-05 0
v  199.99994 -7.0000002e-05 0
v  800 -275 -225
v  700 -275 -225
v  700 -262.5 -225
v  800 -262.5 -225
v  700 -262.5 -200
v  800 -262.5 -200
v  700 -325 -350
v  800 -325 -350
v  700 -325 -325
v  800 -325 -325
v  800 -400 -600.00012
v  700 -400 -600.00012
v  800 -212.99992 -99.999992
v  700.00006 -212.99992 -99.999992
v  700.00006 -199.99992 -99.999992
v  800 -199.99992 -99.999992
v  700.00006 -199.99992 900.00024
v  800 -199.99992 900.00024
v  800 -212.99992 -99.999962
v  700.00006 -212.99992 -99.999962
v  700.00006 -199.99992 -99.999962
v  800 -199.99992 -99.999962
v  700.00006 -199.99992 599.99945
v  800 -199.99992 599.99945
v  800 -9.1499996e-06 899.99982
v  700.00006 -9.1499996e-06 899.99982
v  700 -9.1499996e-06 -199.99986
v  800 -9.1499996e-06 -199.99986
v  800 -250 -175
v  700 -250 -175
v  700 -237.5 -175
v  800 -237.5 -175
v  700 -237.5 -150
v  800 -237.5 -150
v  -1.371e-05 -200 200
v  -100 -200 200
v  -100 -200 900.00006
v  -1.371e-05 -200 900.00006
v  700 -287.5 -275
v  800 -287.5 -275
v  700 -287.5 -250
v  800 -287.5 -250
v  796 0 896
v  800 0 896
v  800 -200 896
v  796 -200 896
v  796 0 900
v  796 -200 900
v  200 -200 199.99974
v  100.00002 -200 199.99974
v  100.00002 -200 600
v  200 -200 600
v  -1.134e-05 -1.08e-05 899.99976
v  -100 -1.08e-05 899.99976
v  -100 -1.08e-05 199.99985
v  -1.134e-05 -1.08e-05 199.99985
v  700 -350 -400
v  800 -350 -400
v  700 -275 -250
v  800 -275 -250
v  800 -225 -125
v  700 -225 -125
v  700 -212.5 -125
v  800 -212.5 -125
v  700 -212.5 -100
v  800 -212.5 -100
v  195.99998 0 3.99999
v  195.99998 0 -9.9199997e-06
v  195.99998 -200 -9.9199997e-06
v  195.99998 -200 3.99999
v  199.99998 0 3.9999907
v  199.99998 -200 3.9999907
v  700 -375 -450
v  800 -375 -450
v  700 -225 -150
v  800 -225 -150
v  700 -250 -200
v  800 -250 -200
v  700 -312.5 -325
v  800 -312.5 -325
v  99.999992 -200 -100
v  0.001 -200 -100
v  0.001 -200 0
v  99.999992 -200 0
v  200 0 600
v  100.00001 0 600
v  100.00001 0 199.99974
v  200 0 199.99974
v  -96.000008 0 3.9999757
v  -100.00001 0 3.9999752
v  -100.00001 -200 3.9999752
v  -96.000008 -200 3.9999757
v  -96.000008 0 -2.437e-05
v  -96.000008 -200 -2.437e-05
v  100 -200 0
v  199.99997 -200 0
v  199.99997 0 0
v  100 0 0
v  100 -200 -100
v  100 0 -100
v  700 -200 -600
v  700 -400 -600
v  800 -213 -100
v  800 0 -200.00011
v  800 -200 -600
v  200 -400 700.00006
v  200 0 700.00006
v  0 -200 200
v  0 -200 800
v  0 0 800
v  0 0 200
v  800 -400 -600
v  100 -400 700.00006
v  100 -400 600.00006
v  100 0 600.00006
v  100 0 700.00006
v  800 -213 -100.00005
v  800 -200 899.99994
v  800 5.5999999e-06 899.99994
v  800 0 -200.00005
v  700 0 -200.00011
v  700 -213 -100
v  -5.05e-07 -200 800
v  700 -200 799.99994
v  700 0 799.99994
v  -5.05e-07 0 800
v  200 -200 0
v  200 0 0
v  100.00002 -432 600
v  200 -432 600
v  -100 -200 0
v  0 -200 0
v  0 0 0
v  -100 0 0
v  0 -200 -100
v  0 0 -100
v  -100 -200 900
v  -100 0 900
v  800.00018 -200 900
v  -99.999985 -200 900
v  -99.999985 0 900
v  800.00018 0 900
v  99.999931 -200 199.99998
v  -6.875e-05 -200 199.99998
v  -6.875e-05 0 199.99998
v  99.999931 0 199.99998
v  99.999931 -200 600
v  99.999931 0 600
v  700 0 800
v  700 -213 800
v  700 0 -200

# 203 UV coordinates
vt -4.1118422 2.053968 0
vt -3.5978618 2.053968 0
vt -3.5978618 1.9897203 0
vt -4.1118422 1.9897203 0
vt -4.1118422 2.4394531 0
vt -3.5978618 2.4394531 0
vt -3.5978618 2.3109581 0
vt -4.1118422 2.3109581 0
vt -4.1118422 1.9254729 0
vt -3.5978618 1.9254729 0
vt -3.5978618 1.8612254 0
vt -4.1118422 1.8612254 0
vt -4.1118422 2.1824629 0
vt -3.5978618 2.1824629 0
vt 4.1118417 1.0260074 0
vt 3.5978615 1.0260074 0
vt 3.5978615 3.0819285 0
vt 4.1118417 3.0819285 0
vt 0.51398021 -0.001953125 0
vt 5.1005859e-06 -0.001953125 0
vt 5.1005859e-06 0.51202714 0
vt 0.51398021 0.51202714 0
vt -4.1118422 1.7969778 0
vt -3.5978618 1.7969778 0
vt -3.5978618 1.7327303 0
vt -4.1118422 1.7327303 0
vt -4.1118422 1.6042352 0
vt -3.5978618 1.6042352 0
vt -3.5978618 1.5399877 0
vt -4.1118422 1.5399877 0
vt -3.5978618 1.4114926 0
vt -4.1118422 1.4114926 0
vt -3.5978611 -4.1137958 0
vt 4.3870273e-07 -4.1137953 0
vt 3.357319e-07 -4.6277757 0
vt -3.5978611 -4.6277761 0
vt 5.0633221 -0.001953125 0
vt 5.0838814 -0.001953125 0
vt 5.0838814 1.0260074 0
vt 5.0633221 1.0260074 0
vt -0.48601964 -0.001953125 0
vt -0.46546042 -0.001953125 0
vt -0.46546042 1.0260074 0
vt -0.48601964 1.0260074 0
vt -1.0279605 -3.0858359 0
vt -0.51398027 -3.0858359 0
vt -0.51398027 -3.5998163 0
vt -1.0279605 -3.5998163 0
vt -1.0279603 -0.001953125 0
vt 0.51398003 -0.001953125 0
vt 0.51398003 -1.0299135 0
vt -1.0279603 -1.0299135 0
vt 3.5978611 -4.0858364 0
vt -3.9063528e-07 -4.0858355 0
vt -4.9360608e-07 -3.5718553 0
vt 3.5978611 -3.571856 0
vt 1.0279602 -1.0299135 0
vt -0.51398009 -1.0299135 0
vt -0.51398009 -0.001953125 0
vt 1.0279602 -0.001953125 0
vt -3.5978618 1.3472451 0
vt -4.1118422 1.3472451 0
vt -4.1118422 1.1545025 0
vt -3.5978618 1.1545025 0
vt -3.5978618 1.0260074 0
vt -4.1118422 1.0260074 0
vt -3.5978618 1.6684828 0
vt -4.1118422 1.6684828 0
vt -4.1118422 3.081929 0
vt -3.5978618 3.081929 0
vt -4.1118422 1.0928245 0
vt -3.597862 1.0928245 0
vt -3.597862 1.0260071 0
vt -4.1118422 1.0260071 0
vt -4.1118422 0.51202714 0
vt -3.597862 0.51202714 0
vt -3.597862 -4.6277766 0
vt -4.1118422 -4.6277766 0
vt -4.1118422 0.51202697 0
vt -3.597862 0.51202697 0
vt -3.597862 -3.0858319 0
vt -4.1118422 -3.0858319 0
vt 4.1118422 -4.6277747 0
vt 3.597862 -4.6277747 0
vt 3.597862 1.0260067 0
vt 4.1118422 1.0260067 0
vt -4.1118422 1.2829975 0
vt -3.5978618 1.2829975 0
vt -3.5978618 1.21875 0
vt -4.1118422 1.21875 0
vt -4.1118422 0.89751232 0
vt -3.5978618 0.89751232 0
vt -3.5978618 0.76901728 0
vt -4.1118422 0.76901728 0
vt 1.9068668e-08 -1.0299135 0
vt 0.51398021 -1.0299135 0
vt 0.51398021 -4.6277757 0
vt 1.9068668e-08 -4.6277757 0
vt -3.5978618 1.4757401 0
vt -4.1118422 1.4757401 0
vt 4.0912828 -0.001953125 0
vt 4.1118422 -0.001953125 0
vt 4.1118422 1.0260074 0
vt 4.0912828 1.0260074 0
vt -4.0838814 -0.001953125 0
vt -4.0633225 -0.001953125 0
vt -4.0633225 1.0260074 0
vt -4.0838814 1.0260074 0
vt -1.0279605 -1.0299137 0
vt -0.51398033 -1.0299137 0
vt -0.51398033 -3.0858362 0
vt -1.0279605 -3.0858362 0
vt -5.8285362e-08 -4.6277742 0
vt -0.51398027 -4.6277742 0
vt -0.51398027 -1.0299128 0
vt -5.8285362e-08 -1.0299128 0
vt -3.5978618 1.0902549 0
vt -4.1118422 1.0902549 0
vt -4.1118422 0.64052218 0
vt -3.5978618 0.64052218 0
vt -3.5978618 0.51202714 0
vt -0.020559039 -0.001953125 0
vt 1.71875e-07 -0.001953125 0
vt 1.71875e-07 1.0260074 0
vt -0.020559039 1.0260074 0
vt -1.0279605 -0.001953125 0
vt -1.0074012 -0.001953125 0
vt -1.0074012 1.0260074 0
vt -1.0279605 1.0260074 0
vt -0.51398021 0.51202714 0
vt -5.1398029e-06 0.51202714 0
vt -5.1398029e-06 -0.001953125 0
vt -0.51398021 -0.001953125 0
vt 1.0279605 -3.0858347 0
vt 0.51398033 -3.0858347 0
vt 0.51398033 -1.0299124 0
vt 1.0279605 -1.0299124 0
vt 0.49342111 -0.001953125 0
vt 0.51398033 -0.001953125 0
vt 0.51398033 1.0260074 0
vt 0.49342111 1.0260074 0
vt -8.5783299e-08 -0.001953125 0
vt 0.020559125 -0.001953125 0
vt 0.020559125 1.0260074 0
vt -8.5783299e-08 1.0260074 0
vt 0.51398027 1.0260074 0
vt 1.0279604 1.0260074 0
vt 1.0279604 -0.001953125 0
vt 0.51398027 -0.001953125 0
vt 0.083675988 1.0533512 0
vt 0.59765625 1.0533512 0
vt 0.59765625 0.025390625 0
vt 0.083675988 0.025390625 0
vt -3.0838816 1.0260074 0
vt -2.4414063 2.053968 0
vt -3.0838816 2.053968 0
vt -2.84375 2.0266242 0
vt -0.91632402 1.0654811 0
vt -1.4303048 -0.029296875 0
vt -3.4862254 0.99866366 0
vt 3.0838816 2.053968 0
vt 3.597862 2.053968 0
vt 3.597862 -0.001953125 0
vt 3.0838816 -0.001953125 0
vt -3.4862254 2.0266242 0
vt -3.597862 2.053968 0
vt -3.0838816 -0.001953125 0
vt -3.597862 -0.001953125 0
vt -0.91632426 1.0654811 0
vt 4.2234783 0.99866366 0
vt 4.2234783 -0.029296903 0
vt -1.4303045 -0.029296875 0
vt -1.027961 -0.001953125 0
vt -0.51398027 1.0928248 0
vt -8.6099402e-07 1.0260074 0
vt 3.5978611 1.0260074 0
vt 3.5978611 -0.001953125 0
vt -8.6099402e-07 -0.001953125 0
vt -1.0279605 2.053968 0
vt -0.51398027 2.053968 0
vt -0.51398027 -0.001953125 0
vt 0 1.0260074 0
vt 3.0838816 1.0260074 0
vt -0 -0.001953125 0
vt 0.51398033 2.2184417 0
vt 1.0279605 2.2184417 0
vt 1.0279605 1.0260074 0
vt -0.51398027 1.0260074 0
vt -4.6258225 1.0260074 0
vt -4.6258225 -0.001953125 0
vt -4.111845 1.0260074 0
vt 0.51397836 1.0260074 0
vt 0.51397836 -0.001953125 0
vt -4.111845 -0.001953125 0
vt -0.51397991 1.0260074 0
vt 3.5336143e-07 1.0260074 0
vt 3.5336143e-07 -0.001953125 0
vt -0.51397991 -0.001953125 0
vt -3.0838814 1.0260074 0
vt -1.0279604 1.0260074 0
vt -1.0279604 -0.001953125 0
vt -3.0838814 -0.001953125 0
vt 4.1118422 1.0928248 0

# 15 vertex normals
vn 0 0 -1
vn 0 1 0
vn 0 -0.89442718 0.44721359
vn 0 -1 0
vn 1 0 4.5e-08
vn 4.5e-08 0 -1
vn -1 -0 -0
vn -1 -0 -1.3e-07
vn -1.3e-07 0 1
vn -8.7499998e-08 0 1
vn 1 0 8.7499998e-08
vn 0 0 1
vn 1 0 0
vn 2.18e-08 0 1
vn 1.6955552e-08 0 -1

# Mesh '' with 114 faces
usemtl concretefloor
f  1/1/1 2/2/1 3/3/1
f  1/1/1 3/3/1 4/4/1
f  4/5/2 3/6/2 5/7/2
f  4/5/2 5/7/2 6/8/2
f  7/9/1 8/10/1 9/11/1
f  7/9/1 9/11/1 10/12/1
f  10/13/2 9/14/2 11/2/2
f  10/13/2 11/2/2 12/1/2
f  13/15/3 14/16/3 15/17/3
f  13/15/3 15/17/3 16/18/3
f  17/19/4 18/20/4 19/21/4
f  17/19/4 19/21/4 20/22/4
f  21/23/1 22/24/1 23/25/1
f  21/23/1 23/25/1 24/26/1
f  24/9/2 23/10/2 25/24/2
f  24/9/2 25/24/2 26/23/2
f  27/27/1 28/28/1 29/29/1
f  27/27/1 29/29/1 30/30/1
f  30/30/2 29/29/2 31/31/2
f  30/30/2 31/31/2 32/32/2
f  33/33/2 34/34/2 35/35/2
f  33/33/2 35/35/2 36/36/2
f  37/37/5 38/38/5 39/39/5
f  37/37/5 39/39/5 40/40/5
f  41/41/6 37/42/6 40/43/6
f  41/41/6 40/43/6 42/44/6
f  43/45/2 44/46/2 45/47/2
f  43/45/2 45/47/2 46/48/2
f  47/49/2 48/50/2 49/51/2
f  47/49/2 49/51/2 50/52/2
f  51/53/4 52/54/4 53/55/4
f  51/53/4 53/55/4 54/56/4
f  55/57/4 56/58/4 57/59/4
f  55/57/4 57/59/4 58/60/4
f  59/32/1 60/31/1 61/61/1
f  59/32/1 61/61/1 62/62/1
f  62/63/2 61/64/2 63/65/2
f  62/63/2 63/65/2 64/66/2
f  26/26/1 25/25/1 65/67/1
f  26/26/1 65/67/1 66/68/1
f  66/23/2 65/24/2 67/67/2
f  66/23/2 67/67/2 68/68/2
f  69/69/2 70/70/2 2/6/2
f  69/69/2 2/6/2 1/5/2
f  71/71/1 72/72/1 73/73/1
f  71/71/1 73/73/1 74/74/1
f  74/75/2 73/76/2 75/77/2
f  74/75/2 75/77/2 76/78/2
f  77/71/1 78/72/1 79/73/1
f  77/71/1 79/73/1 80/74/1
f  80/79/2 79/80/2 81/81/2
f  80/79/2 81/81/2 82/82/2
f  83/83/4 84/84/4 85/85/4
f  83/83/4 85/85/4 86/86/4
f  87/87/1 88/88/1 89/89/1
f  87/87/1 89/89/1 90/90/1
f  90/91/2 89/92/2 91/93/2
f  90/91/2 91/93/2 92/94/2
f  93/95/2 94/96/2 95/97/2
f  93/95/2 95/97/2 96/98/2
f  32/30/1 31/29/1 97/99/1
f  32/30/1 97/99/1 98/100/1
f  98/32/2 97/31/2 99/88/2
f  98/32/2 99/88/2 100/87/2
f  101/101/1 102/102/1 103/103/1
f  101/101/1 103/103/1 104/104/1
f  105/105/7 101/106/7 104/107/7
f  105/105/7 104/107/7 106/108/7
f  107/109/2 108/110/2 109/111/2
f  107/109/2 109/111/2 110/112/2
f  111/113/4 112/114/4 113/115/4
f  111/113/4 113/115/4 114/116/4
f  12/12/1 11/11/1 115/24/1
f  12/12/1 115/24/1 116/23/1
f  116/1/2 115/2/2 22/10/2
f  116/1/2 22/10/2 21/9/2
f  100/100/1 99/99/1 117/31/1
f  100/100/1 117/31/1 118/32/1
f  118/87/2 117/88/2 60/64/2
f  118/87/2 60/64/2 59/63/2
f  119/63/1 120/64/1 121/117/1
f  119/63/1 121/117/1 122/118/1
f  122/119/2 121/120/2 123/121/2
f  122/119/2 123/121/2 124/75/2
f  47/49/2 48/50/2 49/51/2
f  47/49/2 49/51/2 50/52/2
f  125/122/8 126/123/8 127/124/8
f  125/122/8 127/124/8 128/125/8
f  129/126/9 125/127/9 128/128/9
f  129/126/9 128/128/9 130/129/9
f  6/4/1 5/3/1 131/10/1
f  6/4/1 131/10/1 132/9/1
f  132/8/2 131/7/2 8/14/2
f  132/8/2 8/14/2 7/13/2
f  92/90/1 91/89/1 133/64/1
f  92/90/1 133/64/1 134/63/1
f  134/94/2 133/93/2 120/120/2
f  134/94/2 120/120/2 119/119/2
f  64/62/1 63/61/1 135/88/1
f  64/62/1 135/88/1 136/87/1
f  136/66/2 135/65/2 88/92/2
f  136/66/2 88/92/2 87/91/2
f  68/68/1 67/67/1 137/28/1
f  68/68/1 137/28/1 138/27/1
f  138/68/2 137/67/2 28/29/2
f  138/68/2 28/29/2 27/30/2
f  139/130/2 140/131/2 141/132/2
f  139/130/2 141/132/2 142/133/2
f  143/134/4 144/135/4 145/136/4
f  143/134/4 145/136/4 146/137/4
f  147/138/10 148/139/10 149/140/10
f  147/138/10 149/140/10 150/141/10
f  151/142/11 147/143/11 150/144/11
f  151/142/11 150/144/11 152/145/11

# Mesh '' with 40 faces
usemtl brickwall
f  153/146/12 154/147/12 155/148/12
f  153/146/12 155/148/12 156/149/12
f  157/150/7 153/151/7 156/152/7
f  157/150/7 156/152/7 158/153/7
f  159/154/13 2/155/13 160/156/13
f  1/157/7 161/158/7 162/159/7
f  1/157/7 162/159/7 163/160/7
f  43/161/7 164/162/7 165/163/7
f  43/161/7 165/163/7 143/164/7
f  166/147/7 167/103/7 168/102/7
f  166/147/7 168/102/7 169/148/7
f  170/165/7 1/157/7 163/160/7
f  171/166/13 172/156/13 173/167/13
f  171/166/13 173/167/13 174/168/13
f  175/169/7 176/170/7 177/171/7
f  175/169/7 177/171/7 178/172/7
f  159/154/13 179/173/13 180/174/13
f  159/154/13 180/174/13 2/155/13
f  181/175/14 182/176/14 183/177/14
f  181/175/14 183/177/14 184/178/14
f  164/179/1 171/180/1 174/181/1
f  164/179/1 174/181/1 165/126/1
f  185/182/7 110/183/7 143/164/7
f  185/182/7 143/164/7 186/184/7
f  187/185/12 188/186/12 110/187/12
f  187/185/12 110/187/12 109/140/12
f  189/188/12 190/182/12 191/184/12
f  189/188/12 191/184/12 192/181/12
f  190/182/13 193/146/13 194/149/13
f  190/182/13 194/149/13 191/184/13
f  195/189/13 189/182/13 192/184/13
f  195/189/13 192/184/13 196/190/13
f  197/191/15 198/192/15 199/193/15
f  197/191/15 199/193/15 200/194/15
f  201/195/1 202/196/1 203/197/1
f  201/195/1 203/197/1 204/198/1
f  205/199/13 201/200/13 204/201/13
f  205/199/13 204/201/13 206/202/13
f  207/102/13 208/203/13 180/174/13
f  207/102/13 180/174/13 209/126/13

