# File produced by Open Asset Import Library (http://www.assimp.sf.net)
# (assimp v5.0.0)

mtllib floor_default.mtl

# 115 vertex positions
v  799.99902 0 0
v  0 0 0
v  0 0 -100
v  799.99902 0 -100
v  800 -387.5 -450
v  700 -387.5 -450
v  700 -375 -450
v  800 -375 -450
v  700 -375 -425
v  800 -375 -425
v  800 -400 -475
v  700 -400 -475
v  700 -387.5 -475
v  800 -387.5 -475
v  799.99988 -232 -100
v  0.001 -232 -100
v  0.001 -200 -100
v  799.99988 -200 -100
v  0.001 -200 0
v  799.99988 -200 0
v  800 -362.5 -400
v  700 -362.5 -400
v  700 -350 -400
v  800 -350 -400
v  700 -350 -375
v  800 -350 -375
v  800 0 -100
v  700 0 -100
v  700 0 -200
v  800 0 -200
v  796 0 -4
v  800 0 -4
v  800 -200 -4
v  796 -200 -4
v  796 0 0
v  796 -200 0
v  799.99994 0 -200
v  699.99994 0 -200
v  699.99994 -200 -600
v  799.99994 -200 -600
v  800 -300 -275
v  700 -300 -275
v  700 -287.5 -275
v  800 -287.5 -275
v  700 -287.5 -250
v  800 -287.5 -250
v  800 -237.5 -150
v  700 -237.5 -150
v  700 -225 -150
v  800 -225 -150
v  700 -225 -125
v  800 -225 -125
v  700 -275 -250
v  800 -275 -250
v  700 -275 -225
v  800 -275 -225
v  700 -362.5 -425
v  800 -362.5 -425
v  700 -262.5 -225
v  800 -262.5 -225
v  700 -262.5 -200
v  800 -262.5 -200
v  800 -250 -175
v  700 -250 -175
v  700 -237.5 -175
v  800 -237.5 -175
v  800 -312.5 -300
v  700 -312.5 -300
v  700 -300 -300
v  800 -300 -300
v  700 -212.5 -125
v  800 -212.5 -125
v  700 -212.5 -100
v  800 -212.5 -100
v  700 -250 -200
v  800 -250 -200
v  700 -337.5 -375
v  800 -337.5 -375
v  700 -337.5 -350
v  800 -337.5 -350
v  700 -325 -350
v  800 -325 -350
v  700 -325 -325
v  800 -325 -325
v  0 0 -4
v  4 0 -4
v  4 -200 -4
v  0 -200 -4
v  4 0 0
v  4 -200 0
v  700 -312.5 -325
v  800 -312.5 -325
v  800 -400 -600.00012
v  700 -400 -600.00012
v  800 -400 -600
v  800 -200 -600
v  100.0003 -200 -100
v  700 -200 -100
v  100.0003 0 -100
v  800 -200 0
v  -0.001 -200 0
v  -0.001 0 0
v  800 0 0
v  800 -213 -100.00005
v  800 -200.00002 -4.9999999e-05
v  800 0 -4.9999999e-05
v  800 0 -200.00005
v  800 -213 -100
v  800 0 -200.00011
v  0 -200 0
v  0 -200 -100
v  700 -200 -600
v  700 -400 -600
v  700 0 -200.00011
v  700 -213 -100

# 104 UV coordinates
vt 4.1118369 -0.001953123 0
vt 1.953125e-09 -0.001953123 0
vt 1.953125e-09 0.51202714 0
vt 4.1118369 0.51202714 0
vt -4.1118422 1.9897203 0
vt -3.5978618 1.9897203 0
vt -3.5978618 1.9254729 0
vt -4.1118422 1.9254729 0
vt -4.1118422 2.3109581 0
vt -3.5978618 2.3109581 0
vt -3.5978618 2.1824629 0
vt -4.1118422 2.1824629 0
vt -4.1118422 2.053968 0
vt -3.5978618 2.053968 0
vt -4.1118422 2.4394531 0
vt -3.5978618 2.4394531 0
vt -4.1118417 1.1904811 0
vt -5.1378497e-06 1.1904811 0
vt -5.1378497e-06 1.0260074 0
vt -4.1118417 1.0260074 0
vt -4.1118417 0.51202714 0
vt -5.1378497e-06 0.51202714 0
vt -5.1378497e-06 -0.001953123 0
vt -4.1118417 -0.001953123 0
vt -4.1118422 1.8612254 0
vt -3.5978618 1.8612254 0
vt -3.5978618 1.7969778 0
vt -4.1118422 1.7969778 0
vt 4.1118422 0.51202714 0
vt 3.5978618 0.51202714 0
vt 3.5978618 1.0260074 0
vt 4.1118422 1.0260074 0
vt 4.0912828 -0.001953125 0
vt 4.1118422 -0.001953125 0
vt 4.0912828 1.0260074 0
vt -0 -0.001953125 0
vt 0.02055921 -0.001953125 0
vt 0.02055921 1.0260074 0
vt -0 1.0260074 0
vt 4.1118417 1.0260074 0
vt 3.5978615 1.0260074 0
vt 3.5978615 3.0819285 0
vt 4.1118417 3.0819285 0
vt -4.1118422 1.5399877 0
vt -3.5978618 1.5399877 0
vt -3.5978618 1.4757401 0
vt -4.1118422 1.4757401 0
vt -4.1118422 1.4114926 0
vt -3.5978618 1.4114926 0
vt -3.5978618 1.2829975 0
vt -4.1118422 1.2829975 0
vt -4.1118422 1.21875 0
vt -3.5978618 1.21875 0
vt -3.5978618 1.1545025 0
vt -4.1118422 1.1545025 0
vt -4.1118422 0.76901728 0
vt -3.5978618 0.76901728 0
vt -3.5978618 0.64052218 0
vt -4.1118422 0.64052218 0
vt -3.5978618 1.3472451 0
vt -4.1118422 1.3472451 0
vt -3.5978618 1.0260074 0
vt -4.1118422 1.0260074 0
vt -4.1118422 0.89751232 0
vt -3.5978618 0.89751232 0
vt -4.1118422 1.6042352 0
vt -3.5978618 1.6042352 0
vt -3.5978618 1.0902549 0
vt -4.1118422 1.0902549 0
vt -3.5978618 0.51202714 0
vt -4.1118422 0.51202714 0
vt -3.5978618 1.7327303 0
vt -4.1118422 1.7327303 0
vt -3.5978618 1.6684828 0
vt -4.1118422 1.6684828 0
vt -0.02055921 -0.001953125 0
vt -0.02055921 1.0260074 0
vt -4.1118422 3.081929 0
vt -3.5978618 3.081929 0
vt -3.4862254 2.0266242 0
vt -2.84375 2.0266242 0
vt -3.4862254 0.99866366 0
vt 0.51398182 1.0260074 0
vt 3.5978618 -0.001953123 0
vt 0.51398182 -0.001953123 0
vt 5.1398029e-06 1.0260074 0
vt 5.1398029e-06 -0.001953123 0
vt -4.1118422 -0.001953123 0
vt -0.91632426 1.0654811 0
vt -0.40234402 0.99866372 0
vt -0.40234402 -0.029296875 0
vt -1.4303045 -0.029296875 0
vt -0.91632402 1.0654811 0
vt -1.4303048 -0.029296875 0
vt 0.51398027 1.0260074 0
vt 0.51398027 -0.001953123 0
vt 0 -0.001953123 0
vt -3.0838816 1.0260074 0
vt -2.4414063 2.053968 0
vt -3.0838816 2.053968 0
vt -1.027961 -0.001953125 0
vt -0.51398027 1.0928248 0
vt -0.51398027 -0.001953125 0
vt -1.0279605 -0.001953125 0

# 7 vertex normals
vn 0 -1 0
vn 0 0 -1
vn 0 1 0
vn -1 -0 -0
vn 0 -0.89442718 0.44721359
vn 1 0 0
vn 0 0 1

# Mesh '' with 80 faces
usemtl concretefloor
f  1/1/1 2/2/1 3/3/1
f  1/1/1 3/3/1 4/4/1
f  5/5/2 6/6/2 7/7/2
f  5/5/2 7/7/2 8/8/2
f  8/9/3 7/10/3 9/11/3
f  8/9/3 9/11/3 10/12/3
f  11/13/2 12/14/2 13/6/2
f  11/13/2 13/6/2 14/5/2
f  14/15/3 13/16/3 6/10/3
f  14/15/3 6/10/3 5/9/3
f  15/17/2 16/18/2 17/19/2
f  15/17/2 17/19/2 18/20/2
f  18/21/3 17/22/3 19/23/3
f  18/21/3 19/23/3 20/24/3
f  21/25/2 22/26/2 23/27/2
f  21/25/2 23/27/2 24/28/2
f  24/13/3 23/14/3 25/7/3
f  24/13/3 25/7/3 26/8/3
f  27/29/1 28/30/1 29/31/1
f  27/29/1 29/31/1 30/32/1
f  31/33/2 32/34/2 33/32/2
f  31/33/2 33/32/2 34/35/2
f  35/36/4 31/37/4 34/38/4
f  35/36/4 34/38/4 36/39/4
f  37/40/5 38/41/5 39/42/5
f  37/40/5 39/42/5 40/43/5
f  41/44/2 42/45/2 43/46/2
f  41/44/2 43/46/2 44/47/2
f  44/48/3 43/49/3 45/50/3
f  44/48/3 45/50/3 46/51/3
f  47/52/2 48/53/2 49/54/2
f  47/52/2 49/54/2 50/55/2
f  50/56/3 49/57/3 51/58/3
f  50/56/3 51/58/3 52/59/3
f  46/47/2 45/46/2 53/49/2
f  46/47/2 53/49/2 54/48/2
f  54/51/3 53/50/3 55/54/3
f  54/51/3 55/54/3 56/55/3
f  10/8/2 9/7/2 57/26/2
f  10/8/2 57/26/2 58/25/2
f  58/12/3 57/11/3 22/14/3
f  58/12/3 22/14/3 21/13/3
f  56/48/2 55/49/2 59/60/2
f  56/48/2 59/60/2 60/61/2
f  60/55/3 59/54/3 61/62/3
f  60/55/3 61/62/3 62/63/3
f  63/51/2 64/50/2 65/53/2
f  63/51/2 65/53/2 66/52/2
f  66/64/3 65/65/3 48/57/3
f  66/64/3 48/57/3 47/56/3
f  67/66/2 68/67/2 69/45/2
f  67/66/2 69/45/2 70/44/2
f  70/44/3 69/45/3 42/49/3
f  70/44/3 42/49/3 41/48/3
f  52/55/2 51/54/2 71/68/2
f  52/55/2 71/68/2 72/69/2
f  72/59/3 71/58/3 73/70/3
f  72/59/3 73/70/3 74/71/3
f  62/61/2 61/60/2 75/50/2
f  62/61/2 75/50/2 76/51/2
f  76/63/3 75/62/3 64/65/3
f  76/63/3 64/65/3 63/64/3
f  26/28/2 25/27/2 77/72/2
f  26/28/2 77/72/2 78/73/2
f  78/8/3 77/7/3 79/27/3
f  78/8/3 79/27/3 80/28/3
f  80/73/2 79/72/2 81/74/2
f  80/73/2 81/74/2 82/75/2
f  82/28/3 81/27/3 83/74/3
f  82/28/3 83/74/3 84/75/3
f  85/36/2 86/37/2 87/38/2
f  85/36/2 87/38/2 88/39/2
f  86/76/6 89/36/6 90/39/6
f  86/76/6 90/39/6 87/77/6
f  84/75/2 83/74/2 91/67/2
f  84/75/2 91/67/2 92/66/2
f  92/75/3 91/74/3 68/45/3
f  92/75/3 68/45/3 67/44/3
f  93/78/3 94/79/3 12/16/3
f  93/78/3 12/16/3 11/15/3

# Mesh '' with 15 faces
usemtl brickwall
f  95/80/4 11/81/4 96/82/4
f  97/83/7 98/31/7 28/84/7
f  97/83/7 28/84/7 99/85/7
f  100/63/2 101/86/2 102/87/2
f  100/63/2 102/87/2 103/88/2
f  104/89/4 105/90/4 106/91/4
f  104/89/4 106/91/4 107/92/4
f  11/81/4 108/93/4 109/94/4
f  11/81/4 109/94/4 96/82/4
f  110/39/6 111/95/6 3/96/6
f  110/39/6 3/96/6 2/97/6
f  112/98/6 12/99/6 113/100/6
f  112/98/6 114/101/6 115/102/6
f  112/98/6 115/102/6 12/99/6
f  28/103/6 115/102/6 29/104/6

