# File produced by Open Asset Import Library (http://www.assimp.sf.net)
# (assimp v5.0.0)

mtllib floor_bighall.mtl

# 180 vertex positions
v  800 -387.5 -151
v  700 -387.5 -151
v  700 -375 -151
v  800 -375 -151
v  700 -375 -126
v  800 -375 -126
v  2.19e-06 -300 174.99998
v  100 -300 175
v  100 -275 175
v  2.19e-06 -275 174.99998
v  100.00001 -300 150
v  100.00001 -275 150
v  4.3700002e-06 -275 149.99998
v  0 -300 199.99998
v  100 -300 200
v  100 -287.5 200
v  0 -287.5 199.99998
v  100 -287.5 175
v  2.19e-06 -287.5 174.99998
v  800 -350 -76
v  700 -350 -76
v  700 -337.5 -76
v  800 -337.5 -76
v  700 -337.5 -51
v  800 -337.5 -51
v  1.311e-05 -300 49.999992
v  100.00002 -300 50
v  100.00002 -212.5 50
v  1.311e-05 -212.5 49.999992
v  100.00002 -300 25
v  100.00002 -212.5 25
v  1.53e-05 -212.5 24.999992
v  796 -100.00001 196
v  800 -100.00001 196
v  800 -300 196
v  796 -300 196
v  796 -100.00001 200
v  796 -300 200
v  800 -362.5 -101
v  700 -362.5 -101
v  700 -350 -101
v  800 -350 -101
v  8.7400003e-06 -300 99.999992
v  100.00001 -300 100
v  100.00001 -237.5 100
v  8.7400003e-06 -237.5 99.999992
v  100.00001 -300 75
v  100.00001 -237.5 75
v  1.093e-05 -237.5 74.999992
v  700 -325 -51
v  800 -325 -51
v  700 -325 -26
v  800 -325 -26
v  600.00006 0 400
v  0 0 400
v  0 0 -100
v  600.00006 0 -100
v  800.00031 -300 99.999977
v  600.00024 -300 99.999977
v  600.00024 -300 200.00002
v  800.00031 -300 200.00002
v  700 -362.5 -126
v  800 -362.5 -126
v  0 0 396
v  4 0 396
v  4 -300 396
v  0 -300 396
v  4 0 400
v  4 -300 400
v  699.99988 -99.999992 99.999992
v  699.99988 -99.999992 199.99992
v  599.99988 -99.999992 199.99992
v  599.99988 -99.999992 99.999992
v  800 -312.99991 -0.99999249
v  700 -312.99991 -0.99999249
v  700 -299.99991 -0.99999249
v  800 -299.99991 -0.99999249
v  700 -299.99991 100.00004
v  800 -299.99991 100.00004
v  4.3700002e-06 -300 149.99998
v  100.00001 -262.5 150
v  4.3700002e-06 -262.5 149.99998
v  100.00001 -300 125
v  100.00001 -262.5 125
v  6.5600002e-06 -262.5 124.99999
v  800 -400 -176
v  700 -400 -176
v  700 -387.5 -176
v  800 -387.5 -176
v  800 -400 -600
v  700 -400 -600
v  700 -400 -175.99998
v  800 -400 -175.99998
v  700 -200 -600.00031
v  800 -199.99998 -600.00031
v  800 -199.99998 -300.00012
v  700 -200 -300.00012
v  1.093e-05 -300 74.999992
v  100.00001 -225 75
v  1.093e-05 -225 74.999992
v  100.00002 -225 50
v  1.311e-05 -225 49.999992
v  1.311e-05 -300 24.999971
v  100.00002 -300 25.000015
v  100.00002 -200 25.000015
v  1.311e-05 -200 24.999971
v  100.00002 -300 -99.999954
v  100.00002 -200 -99.999954
v  1.53e-05 -200 -100
v  800 -100 -100
v  700 -100 -100
v  700 -200 -300
v  800 -200 -300
v  600 -9.2999999e-06 -96
v  596 -9.2999999e-06 -96
v  596 -300.00003 -96
v  600 -300.00003 -96
v  596 -9.2999999e-06 -100
v  596 -300.00003 -100
v  700 -100.00001 -100
v  800 -100 200.00018
v  700 -100.00001 200.00018
v  6.5600002e-06 -300 124.99998
v  100.00001 -300 124.99999
v  100.00001 -250 124.99999
v  6.5600002e-06 -250 124.99998
v  100.00001 -300 99.999992
v  100.00001 -250 99.999992
v  8.7400003e-06 -250 99.999985
v  700 -312.5 -26
v  800 -312.5 -26
v  700 -312.5 -1
v  800 -312.5 -1
v  599.99921 -300 -100
v  -9.3820003e-05 -300 -100
v  -9.3820003e-05 -300 399.99982
v  599.99921 -300 399.99982
v  596 -9.2999999e-06 396
v  600 -9.2999999e-06 396
v  600 -300.00003 396
v  596 -300.00003 396
v  596 -9.2999999e-06 400
v  596 -300.00003 400
v  0 -300 400
v  0 -300 -100
v  600 -300 200.00005
v  600 -300 400.00003
v  600 0 400.00003
v  600 0 200.00005
v  600 -300 -99.999969
v  600 -300 100
v  600 0 100
v  600 0 -99.999969
v  800 -313 -0.99998415
v  800 -200 -600
v  600 -300 400
v  -9.0999998e-07 -300 400
v  -9.0999998e-07 0 400
v  600 0 400
v  100.00003 -300 -100
v  600 -300 -100
v  600 0 -100
v  100.00003 0 -100
v  599.99988 0 199.99992
v  599.99988 0 99.999977
v  700 -313 -0.99998415
v  700 -200 -600
v  700 -100 -99.999992
v  700 -100 100.00001
v  700 -313 100.00001
v  700 -313 -0.99999273
v  600 -100 100.00001
v  600 -313 100.00001
v  800 -313 -1.0000004
v  800 -313 200
v  800 -100 199.99997
v  799.99976 -300 200.00002
v  599.99976 -300 200.00002
v  599.99976 -100 200.00002
v  799.99976 -100 200.00002

# 224 UV coordinates
vt -4.1118422 1.9897203 0
vt -3.5978618 1.9897203 0
vt -3.5978618 1.9254729 0
vt -4.1118422 1.9254729 0
vt -4.1118422 0.77415705 0
vt -3.5978618 0.77415705 0
vt -3.5978618 0.64566201 0
vt -4.1118422 0.64566201 0
vt 9.2208055e-08 1.5399877 0
vt 0.51398033 1.5399877 0
vt 0.51398033 1.4114926 0
vt 9.2208055e-08 1.4114926 0
vt -0.89946544 1.5399877 0
vt -0.77097034 1.5399877 0
vt -0.77097034 1.4114926 0
vt -0.89946544 1.4114926 0
vt 9.2208055e-08 0.89751232 0
vt 0.51398033 0.89751232 0
vt 0.51398033 0.76901722 0
vt 9.1848271e-08 0.76901722 0
vt 9.2516444e-08 1.5399877 0
vt 0.51398033 1.4757401 0
vt 9.2516444e-08 1.4757401 0
vt -1.0279605 1.5399877 0
vt -0.89946544 1.4757401 0
vt -1.0279605 1.4757401 0
vt 9.2516444e-08 1.0260074 0
vt 0.51398033 1.0260074 0
vt -4.1118422 1.7969778 0
vt -3.5978618 1.7969778 0
vt -3.5978618 1.7327303 0
vt -4.1118422 1.7327303 0
vt -4.1118422 0.38867188 0
vt -3.5978618 0.38867188 0
vt -3.5978618 0.26017681 0
vt -4.1118422 0.26017681 0
vt 9.0511918e-08 1.5399877 0
vt 0.51398033 1.0902549 0
vt 9.0511918e-08 1.0902549 0
vt -0.25699008 1.5399877 0
vt -0.12849502 1.5399877 0
vt -0.12849502 1.0902549 0
vt -0.25699008 1.0902549 0
vt 9.0511918e-08 0.25503695 0
vt 0.51398033 0.25503695 0
vt 0.51398033 0.1265419 0
vt 9.0203535e-08 0.1265419 0
vt 4.0912828 0.51202714 0
vt 4.1118422 0.51202714 0
vt 4.1118422 1.5399877 0
vt 4.0912828 1.5399877 0
vt -1.0279605 0.51202714 0
vt -1.0074013 0.51202714 0
vt -1.0074013 1.5399877 0
vt -4.1118422 1.8612254 0
vt -3.5978618 1.8612254 0
vt -4.1118422 0.51716691 0
vt -3.5978618 0.51716691 0
vt 9.1180098e-08 1.5399877 0
vt 0.51398033 1.21875 0
vt 9.1180098e-08 1.21875 0
vt -0.51398021 1.5399877 0
vt -0.38548514 1.5399877 0
vt -0.38548514 1.21875 0
vt -0.51398021 1.21875 0
vt 9.1180098e-08 0.51202708 0
vt 0.51398033 0.51202708 0
vt 0.51398033 0.38353202 0
vt 9.0871708e-08 0.38353202 0
vt -3.5978618 1.6684828 0
vt -4.1118422 1.6684828 0
vt -3.5978618 0.13168174 0
vt -4.1118422 0.13168174 0
vt 3.0838819 -2.0578742 0
vt 0 -2.0578742 0
vt 0 0.51202714 0
vt 3.0838819 0.51202714 0
vt -4.1118436 -0.51593328 0
vt -3.0838828 -0.51593328 0
vt -3.0838828 -1.0299137 0
vt -4.1118436 -1.0299137 0
vt 0 -0.001953125 0
vt 0.02055921 -0.001953125 0
vt 0.02055921 1.5399877 0
vt 0 1.5399877 0
vt 2.0353618 -0.001953125 0
vt 2.0559211 -0.001953125 0
vt 2.0559211 1.5399877 0
vt 2.0353618 1.5399877 0
vt -0.51397932 -3.5998144 0
vt -1.0279592 -3.5998144 0
vt -1.0279593 -3.085834 0
vt -0.51397943 -3.085834 0
vt -4.1118422 1.6068046 0
vt -3.5978618 1.6068046 0
vt -3.5978618 1.5399872 0
vt -4.1118422 1.5399872 0
vt -4.1118422 0.0031866389 0
vt -3.5978618 0.0031866389 0
vt -3.5978618 -0.51593357 0
vt -4.1118422 -0.51593357 0
vt 9.1848271e-08 1.5399877 0
vt 0.51398033 1.3472451 0
vt 9.1848271e-08 1.3472451 0
vt -0.64247531 1.5399877 0
vt -0.64247531 1.3472451 0
vt -0.77097034 1.3472451 0
vt 0.51398033 0.64052218 0
vt 9.1539881e-08 0.64052218 0
vt -4.1118422 2.053968 0
vt -3.5978618 2.053968 0
vt -4.1118422 0.90265214 0
vt -3.5978618 0.90265214 0
vt -4.1118422 3.0819285 0
vt -3.5978618 3.0819285 0
vt -3.5978618 0.90265203 0
vt -4.1118422 0.90265203 0
vt 3.5978618 3.0819299 0
vt 4.1118422 3.0819299 0
vt 4.1118422 1.5399883 0
vt 3.5978618 1.5399883 0
vt 9.0871708e-08 1.5399877 0
vt 0.51398033 1.1545025 0
vt 9.0871708e-08 1.1545025 0
vt -0.25699008 1.1545025 0
vt -0.38548514 1.1545025 0
vt 1.2520553e-07 1.5399877 0
vt 0.51398039 1.5399877 0
vt 0.51398039 1.0260074 0
vt 1.2520553e-07 1.0260074 0
vt -0.12849514 1.5399877 0
vt 0.51398003 1.5399877 0
vt 0.51398003 1.0260074 0
vt -0.12849514 1.0260074 0
vt 1.2520553e-07 0.12654179 0
vt 0.51398039 0.12654202 0
vt 0.51398009 -0.51593316 0
vt -1.5265213e-07 -0.51593339 0
vt 3.5978618 0.51202714 0
vt 3.5978618 1.5399877 0
vt -3.0838816 -0.0019530772 0
vt -3.0633223 -0.0019530772 0
vt -3.0633223 1.5399878 0
vt -3.0838816 1.5399878 0
vt 0.49342105 -0.0019530772 0
vt 0.51398027 -0.0019530772 0
vt 0.51398027 1.5399878 0
vt 0.49342105 1.5399878 0
vt 4.1118422 -1.0299145 0
vt 3.5978618 -1.0299145 0
vt 9.1539874e-08 1.5399877 0
vt 0.51398033 1.2829975 0
vt 9.1539874e-08 1.2829975 0
vt -0.64247525 1.5399877 0
vt -0.51398015 1.5399877 0
vt -0.51398021 1.2829975 0
vt -0.64247525 1.2829975 0
vt 9.1539874e-08 0.64052212 0
vt 0.51398033 0.64052212 0
vt 9.1180091e-08 0.51202708 0
vt -3.5978618 1.6042352 0
vt -4.1118422 1.6042352 0
vt -3.5978618 0.0031866776 0
vt -4.1118422 0.0031866776 0
vt -3.0838776 0.51202714 0
vt 4.8221631e-07 0.51202714 0
vt 4.8221631e-07 -2.0578732 0
vt -3.0838776 -2.0578732 0
vt 3.0633223 -0.0019530772 0
vt 3.0838816 -0.0019530772 0
vt 3.0838816 1.5399878 0
vt 3.0633223 1.5399878 0
vt -2.0559211 -0.0019530772 0
vt -2.0353618 -0.0019530772 0
vt -2.0353618 1.5399878 0
vt -2.0559211 1.5399878 0
vt -2.0559211 1.5399877 0
vt 0.51398027 1.5399877 0
vt 0.51398027 -0.001953125 0
vt -2.0559211 -0.001953125 0
vt 1.0279607 1.5399877 0
vt 1.0279607 -0.001953125 0
vt 0.51398015 1.5399877 0
vt 0.51398015 -0.001953125 0
vt -0.51398021 -0.001953125 0
vt -1.306949 2.026624 0
vt -0.40748352 1.5794615 0
vt -0.91632408 0.48468333 0
vt -1.9442846 0.99866349 0
vt -3.4862254 2.0266237 0
vt -3.4862254 0.99866331 0
vt -3.0838814 1.5399877 0
vt 4.6772204e-09 1.5399877 0
vt 4.6772204e-09 -0.001953125 0
vt -3.0838814 -0.001953125 0
vt 3.0838816 1.5399877 0
vt 3.0838816 -0.001953125 0
vt 0.51398039 -0.001953125 0
vt 0.51397943 0.51202714 0
vt 1.0279593 0.51202714 0
vt 1.0279593 -0.0019530324 0
vt 0.51397938 -0.0019530788 0
vt -1.5419408 1.0260072 0
vt -0.51398021 0.51202708 0
vt -0.0051396852 1.6068052 0
vt -0.90460521 2.0539677 0
vt -3.0838816 1.0260071 0
vt -3.0838816 2.0539675 0
vt -0.51398009 0.51202714 0
vt 0.51398039 0.51202714 0
vt 0.51398039 1.6068051 0
vt -0.0051396573 1.6068051 0
vt -3.5978618 0.51202714 0
vt -3.0838816 0.51202714 0
vt -3.0838816 1.6068051 0
vt -3.5978618 1.6068051 0
vt -0.40748361 1.5794613 0
vt 0.62561673 1.5794613 0
vt 0.62561655 0.48468339 0
vt -0.91632408 0.48468339 0
vt -4.1118407 1.5399877 0
vt -3.0838804 1.5399877 0
vt -3.0838804 0.51202714 0
vt -4.1118407 0.51202714 0

# 24 vertex normals
vn 0 0 -1
vn 0 1 0
vn -8.7399997e-08 0 1
vn 1 0 8.72e-08
vn 1 0 8.76e-08
vn -1 0 0
vn 0 -1 0
vn 1 0 0
vn 8.7399997e-08 -1 0
vn -4.3700001e-07 0 1
vn 1 0 1.7520003e-08
vn 0 -0.89442718 0.44721359
vn 0 0 1
vn -8.7399997e-08 -2.9800001e-08 1
vn 1 -2.5985601e-15 8.72e-08
vn -1 -0 -3.5800007e-08
vn -1 -5.1562501e-09 -1.1093749e-08
vn -1 -3.4948113e-09 -5.6367924e-09
vn -1 -2.0858176e-14 -2.2380014e-07
vn 1 -4.5068576e-09 -9.6965715e-09
vn 1 -4.9393334e-09 -7.9666664e-09
vn 1 0 -3.7349999e-08
vn 3.8999999e-09 -4.6948358e-11 1
vn -1 -1.7271997e-15 -1.1890547e-08

# Mesh '' with 112 faces
usemtl concretefloor
f  1/1/1 2/2/1 3/3/1
f  1/1/1 3/3/1 4/4/1
f  4/5/2 3/6/2 5/7/2
f  4/5/2 5/7/2 6/8/2
f  7/9/3 8/10/3 9/11/3
f  7/9/3 9/11/3 10/12/3
f  8/13/4 11/14/4 12/15/4
f  8/13/4 12/15/4 9/16/4
f  10/17/2 9/18/2 12/19/2
f  10/17/2 12/19/2 13/20/2
f  14/21/3 15/10/3 16/22/3
f  14/21/3 16/22/3 17/23/3
f  15/24/5 8/13/5 18/25/5
f  15/24/5 18/25/5 16/26/5
f  17/27/2 16/28/2 18/18/2
f  17/27/2 18/18/2 19/17/2
f  20/29/1 21/30/1 22/31/1
f  20/29/1 22/31/1 23/32/1
f  23/33/2 22/34/2 24/35/2
f  23/33/2 24/35/2 25/36/2
f  26/37/3 27/10/3 28/38/3
f  26/37/3 28/38/3 29/39/3
f  27/40/5 30/41/5 31/42/5
f  27/40/5 31/42/5 28/43/5
f  29/44/2 28/45/2 31/46/2
f  29/44/2 31/46/2 32/47/2
f  33/48/1 34/49/1 35/50/1
f  33/48/1 35/50/1 36/51/1
f  37/52/6 33/53/6 36/54/6
f  37/52/6 36/54/6 38/24/6
f  39/55/1 40/56/1 41/30/1
f  39/55/1 41/30/1 42/29/1
f  42/57/2 41/58/2 21/34/2
f  42/57/2 21/34/2 20/33/2
f  43/59/3 44/10/3 45/60/3
f  43/59/3 45/60/3 46/61/3
f  44/62/5 47/63/5 48/64/5
f  44/62/5 48/64/5 45/65/5
f  46/66/2 45/67/2 48/68/2
f  46/66/2 48/68/2 49/69/2
f  25/32/1 24/31/1 50/70/1
f  25/32/1 50/70/1 51/71/1
f  51/36/2 50/35/2 52/72/2
f  51/36/2 52/72/2 53/73/2
f  54/74/7 55/75/7 56/76/7
f  54/74/7 56/76/7 57/77/7
f  58/78/2 59/79/2 60/80/2
f  58/78/2 60/80/2 61/81/2
f  6/4/1 5/3/1 62/56/1
f  6/4/1 62/56/1 63/55/1
f  63/8/2 62/7/2 40/58/2
f  63/8/2 40/58/2 39/57/2
f  64/82/1 65/83/1 66/84/1
f  64/82/1 66/84/1 67/85/1
f  65/86/8 68/87/8 69/88/8
f  65/86/8 69/88/8 66/89/8
f  70/90/7 71/91/7 72/92/7
f  70/90/7 72/92/7 73/93/7
f  74/94/1 75/95/1 76/96/1
f  74/94/1 76/96/1 77/97/1
f  77/98/2 76/99/2 78/100/2
f  77/98/2 78/100/2 79/101/2
f  80/102/3 11/10/3 81/103/3
f  80/102/3 81/103/3 82/104/3
f  11/14/5 83/105/5 84/106/5
f  11/14/5 84/106/5 81/107/5
f  82/20/2 81/19/2 84/108/2
f  82/20/2 84/108/2 85/109/2
f  86/110/1 87/111/1 88/2/1
f  86/110/1 88/2/1 89/1/1
f  89/112/2 88/113/2 2/6/2
f  89/112/2 2/6/2 1/5/2
f  90/114/2 91/115/2 92/116/2
f  90/114/2 92/116/2 93/117/2
f  94/118/9 95/119/9 96/120/9
f  94/118/9 96/120/9 97/121/9
f  98/122/3 47/10/3 99/123/3
f  98/122/3 99/123/3 100/124/3
f  47/63/4 27/40/4 101/125/4
f  47/63/4 101/125/4 99/126/4
f  100/69/2 99/68/2 101/45/2
f  100/69/2 101/45/2 102/44/2
f  103/127/10 104/128/10 105/129/10
f  103/127/10 105/129/10 106/130/10
f  104/131/11 107/132/11 108/133/11
f  104/131/11 108/133/11 105/134/11
f  106/135/2 105/136/2 108/137/2
f  106/135/2 108/137/2 109/138/2
f  110/49/12 111/139/12 112/140/12
f  110/49/12 112/140/12 113/50/12
f  114/141/13 115/142/13 116/143/13
f  114/141/13 116/143/13 117/144/13
f  115/145/6 118/146/6 119/147/6
f  115/145/6 119/147/6 116/148/6
f  120/139/9 110/49/9 121/149/9
f  120/139/9 121/149/9 122/150/9
f  123/151/14 124/10/14 125/152/14
f  123/151/14 125/152/14 126/153/14
f  124/154/15 127/155/15 128/156/15
f  124/154/15 128/156/15 125/157/15
f  126/158/2 125/159/2 128/67/2
f  126/158/2 128/67/2 129/160/2
f  53/71/1 52/70/1 130/161/1
f  53/71/1 130/161/1 131/162/1
f  131/73/2 130/72/2 132/163/2
f  131/73/2 132/163/2 133/164/2
f  134/165/2 135/166/2 136/167/2
f  134/165/2 136/167/2 137/168/2
f  138/169/1 139/170/1 140/171/1
f  138/169/1 140/171/1 141/172/1
f  142/173/6 138/174/6 141/175/6
f  142/173/6 141/175/6 143/176/6

# Mesh '' with 28 faces
usemtl brickwall
f  144/177/8 145/178/8 56/179/8
f  144/177/8 56/179/8 55/180/8
f  146/181/16 147/88/16 148/87/16
f  146/181/16 148/87/16 149/182/16
f  150/62/16 151/183/16 152/184/16
f  150/62/16 152/184/16 153/185/16
f  86/186/17 154/187/17 110/188/17
f  86/186/17 110/188/17 113/189/17
f  90/190/18 86/186/18 113/189/18
f  90/190/18 113/189/18 155/191/18
f  156/192/1 157/193/1 158/194/1
f  156/192/1 158/194/1 159/195/1
f  160/128/13 161/196/13 162/197/13
f  160/128/13 162/197/13 163/198/13
f  73/199/19 72/200/19 164/201/19
f  73/199/19 164/201/19 165/202/19
f  112/203/20 111/204/20 166/205/20
f  112/203/20 166/205/20 87/206/20
f  167/207/21 112/203/21 87/206/21
f  167/207/21 87/206/21 91/208/21
f  168/209/22 169/210/22 170/211/22
f  168/209/22 170/211/22 171/212/22
f  169/213/23 172/214/23 173/215/23
f  169/213/23 173/215/23 170/216/23
f  174/217/24 175/218/24 176/219/24
f  174/217/24 176/219/24 110/220/24
f  177/221/1 178/222/1 179/223/1
f  177/221/1 179/223/1 180/224/1

